<?xml version="1.0" encoding="UTF-8"?>
<mxfile host="www.draw.io" modified="2019-12-20T14:23:07.492Z" agent="Mozilla/5.0 (X11; Ubuntu; Linux x86_64; rv:70.0) Gecko/20100101 Firefox/70.0" etag="LAVOkQ--v2UyVr4ijuWv" version="12.4.3" pages="1">
  <diagram id="0llAzEVzJa9821p7wzAq" name="Page-1">
    <mxGraphModel dx="1422" dy="782" grid="1" gridSize="10" guides="1" tooltips="1" connect="1" arrows="1" fold="1" page="1" pageScale="1" pageWidth="827" pageHeight="1169" math="0" shadow="0">
      <root>
        <mxCell id="0"/>
        <mxCell id="1" parent="0"/>
        <mxCell id="ij1Nast-WUGQV4Hvbau6-1" value="&lt;font style=&quot;font-size: 20px&quot;&gt;Software onboarding user workflow&lt;/font&gt;" style="text;html=1;align=center;verticalAlign=middle;resizable=0;points=[];;autosize=1;" parent="1" vertex="1">
          <mxGeometry x="438" y="180" width="330" height="20" as="geometry"/>
        </mxCell>
        <mxCell id="ij1Nast-WUGQV4Hvbau6-2" value="Request a new Open Source CML tool (insert the link)" style="rounded=0;whiteSpace=wrap;html=1;" parent="1" vertex="1">
          <mxGeometry x="520" y="210" width="120" height="60" as="geometry"/>
        </mxCell>
        <mxCell id="ij1Nast-WUGQV4Hvbau6-3" style="edgeStyle=orthogonalEdgeStyle;rounded=0;orthogonalLoop=1;jettySize=auto;html=1;entryX=0.574;entryY=-0.06;entryDx=0;entryDy=0;entryPerimeter=0;" parent="1" source="ij1Nast-WUGQV4Hvbau6-5" target="ij1Nast-WUGQV4Hvbau6-8" edge="1">
          <mxGeometry relative="1" as="geometry"/>
        </mxCell>
        <mxCell id="ij1Nast-WUGQV4Hvbau6-4" style="edgeStyle=orthogonalEdgeStyle;rounded=0;orthogonalLoop=1;jettySize=auto;html=1;entryX=0.67;entryY=-0.017;entryDx=0;entryDy=0;entryPerimeter=0;" parent="1" source="ij1Nast-WUGQV4Hvbau6-5" target="ij1Nast-WUGQV4Hvbau6-37" edge="1">
          <mxGeometry relative="1" as="geometry"/>
        </mxCell>
        <mxCell id="ij1Nast-WUGQV4Hvbau6-5" value="Checking for approval:&lt;br&gt;&lt;ul&gt;&lt;li&gt;security check&lt;/li&gt;&lt;li&gt;lisence compliance&amp;nbsp;&lt;/li&gt;&lt;/ul&gt;" style="rounded=0;whiteSpace=wrap;html=1;align=left;" parent="1" vertex="1">
          <mxGeometry x="533" y="460" width="140" height="90" as="geometry"/>
        </mxCell>
        <mxCell id="ij1Nast-WUGQV4Hvbau6-6" style="edgeStyle=orthogonalEdgeStyle;rounded=0;orthogonalLoop=1;jettySize=auto;html=1;" parent="1" source="ij1Nast-WUGQV4Hvbau6-8" edge="1">
          <mxGeometry relative="1" as="geometry">
            <mxPoint x="310" y="620" as="targetPoint"/>
          </mxGeometry>
        </mxCell>
        <mxCell id="ij1Nast-WUGQV4Hvbau6-7" style="edgeStyle=orthogonalEdgeStyle;rounded=0;orthogonalLoop=1;jettySize=auto;html=1;" parent="1" source="ij1Nast-WUGQV4Hvbau6-8" edge="1">
          <mxGeometry relative="1" as="geometry">
            <mxPoint x="520" y="620" as="targetPoint"/>
          </mxGeometry>
        </mxCell>
        <mxCell id="ij1Nast-WUGQV4Hvbau6-8" value="&lt;div&gt;REJECTED&lt;/div&gt;" style="rounded=0;whiteSpace=wrap;html=1;align=center;" parent="1" vertex="1">
          <mxGeometry x="360" y="560" width="120" height="50" as="geometry"/>
        </mxCell>
        <mxCell id="ij1Nast-WUGQV4Hvbau6-9" style="edgeStyle=orthogonalEdgeStyle;rounded=0;orthogonalLoop=1;jettySize=auto;html=1;entryX=0;entryY=0.5;entryDx=0;entryDy=0;" parent="1" source="ij1Nast-WUGQV4Hvbau6-10" target="ij1Nast-WUGQV4Hvbau6-28" edge="1">
          <mxGeometry relative="1" as="geometry"/>
        </mxCell>
        <mxCell id="ij1Nast-WUGQV4Hvbau6-10" value="Detailed report on reasons of rejection" style="whiteSpace=wrap;html=1;aspect=fixed;" parent="1" vertex="1">
          <mxGeometry x="170" y="930" width="120" height="120" as="geometry"/>
        </mxCell>
        <mxCell id="ij1Nast-WUGQV4Hvbau6-11" value="" style="html=1;shadow=0;dashed=0;align=center;verticalAlign=middle;shape=mxgraph.arrows2.arrow;dy=0.6;dx=40;direction=south;notch=0;" parent="1" vertex="1">
          <mxGeometry x="559" y="270" width="42" height="60" as="geometry"/>
        </mxCell>
        <mxCell id="ij1Nast-WUGQV4Hvbau6-12" value="" style="group" parent="1" vertex="1" connectable="0">
          <mxGeometry x="706" y="1490" width="190" height="120" as="geometry"/>
        </mxCell>
        <mxCell id="ij1Nast-WUGQV4Hvbau6-13" value="" style="shape=hexagon;perimeter=hexagonPerimeter2;whiteSpace=wrap;html=1;" parent="ij1Nast-WUGQV4Hvbau6-12" vertex="1">
          <mxGeometry width="183.2142857142857" height="120" as="geometry"/>
        </mxCell>
        <mxCell id="ij1Nast-WUGQV4Hvbau6-14" value="SOFTWARE CATALOGUE" style="text;html=1;align=center;" parent="ij1Nast-WUGQV4Hvbau6-12" vertex="1">
          <mxGeometry x="13.571428571428573" y="40" width="176.42857142857142" height="40" as="geometry"/>
        </mxCell>
        <mxCell id="ij1Nast-WUGQV4Hvbau6-15" style="edgeStyle=orthogonalEdgeStyle;rounded=0;orthogonalLoop=1;jettySize=auto;html=1;entryX=0.407;entryY=0;entryDx=0;entryDy=0;entryPerimeter=0;" parent="1" source="ij1Nast-WUGQV4Hvbau6-16" target="ij1Nast-WUGQV4Hvbau6-5" edge="1">
          <mxGeometry relative="1" as="geometry"/>
        </mxCell>
        <mxCell id="ij1Nast-WUGQV4Hvbau6-16" value="Assessment&lt;br&gt;&lt;div style=&quot;text-align: left&quot;&gt;&lt;span&gt;-&amp;nbsp; request name confirm&amp;nbsp;&lt;/span&gt;&lt;/div&gt;&lt;div style=&quot;text-align: left&quot;&gt;&lt;span&gt;-version confirm&lt;/span&gt;&lt;/div&gt;&lt;div style=&quot;text-align: left&quot;&gt;&lt;span&gt;-what is it for (experimentation by default)&lt;/span&gt;&lt;/div&gt;&lt;div style=&quot;text-align: left&quot;&gt;&lt;br&gt;&lt;/div&gt;" style="rounded=0;whiteSpace=wrap;html=1;" parent="1" vertex="1">
          <mxGeometry x="520" y="330" width="160" height="90" as="geometry"/>
        </mxCell>
        <mxCell id="ij1Nast-WUGQV4Hvbau6-17" value="" style="edgeStyle=orthogonalEdgeStyle;rounded=0;orthogonalLoop=1;jettySize=auto;html=1;" parent="1" source="ij1Nast-WUGQV4Hvbau6-42" target="ij1Nast-WUGQV4Hvbau6-10" edge="1">
          <mxGeometry relative="1" as="geometry"/>
        </mxCell>
        <mxCell id="ij1Nast-WUGQV4Hvbau6-18" value="Software didnt pass approval" style="rounded=0;whiteSpace=wrap;html=1;" parent="1" vertex="1">
          <mxGeometry x="250" y="630" width="120" height="60" as="geometry"/>
        </mxCell>
        <mxCell id="ij1Nast-WUGQV4Hvbau6-19" style="edgeStyle=orthogonalEdgeStyle;rounded=0;orthogonalLoop=1;jettySize=auto;html=1;" parent="1" source="ij1Nast-WUGQV4Hvbau6-20" target="ij1Nast-WUGQV4Hvbau6-23" edge="1">
          <mxGeometry relative="1" as="geometry"/>
        </mxCell>
        <mxCell id="ij1Nast-WUGQV4Hvbau6-20" value="Version didnt pass" style="rounded=0;whiteSpace=wrap;html=1;" parent="1" vertex="1">
          <mxGeometry x="438" y="630" width="120" height="60" as="geometry"/>
        </mxCell>
        <mxCell id="ij1Nast-WUGQV4Hvbau6-21" style="edgeStyle=orthogonalEdgeStyle;rounded=0;orthogonalLoop=1;jettySize=auto;html=1;" parent="1" source="ij1Nast-WUGQV4Hvbau6-23" edge="1">
          <mxGeometry relative="1" as="geometry">
            <mxPoint x="700" y="840" as="targetPoint"/>
          </mxGeometry>
        </mxCell>
        <mxCell id="ij1Nast-WUGQV4Hvbau6-22" style="edgeStyle=orthogonalEdgeStyle;rounded=0;orthogonalLoop=1;jettySize=auto;html=1;" parent="1" source="ij1Nast-WUGQV4Hvbau6-23" edge="1">
          <mxGeometry relative="1" as="geometry">
            <mxPoint x="500" y="880" as="targetPoint"/>
          </mxGeometry>
        </mxCell>
        <mxCell id="ij1Nast-WUGQV4Hvbau6-23" value="Suggest another version" style="rounded=0;whiteSpace=wrap;html=1;" parent="1" vertex="1">
          <mxGeometry x="528" y="770" width="120" height="60" as="geometry"/>
        </mxCell>
        <mxCell id="ij1Nast-WUGQV4Hvbau6-24" style="edgeStyle=orthogonalEdgeStyle;rounded=0;orthogonalLoop=1;jettySize=auto;html=1;entryX=0.695;entryY=0;entryDx=0;entryDy=0;entryPerimeter=0;" parent="1" source="ij1Nast-WUGQV4Hvbau6-25" target="ij1Nast-WUGQV4Hvbau6-28" edge="1">
          <mxGeometry relative="1" as="geometry">
            <mxPoint x="430" y="960" as="targetPoint"/>
          </mxGeometry>
        </mxCell>
        <mxCell id="ij1Nast-WUGQV4Hvbau6-25" value="DONT accept" style="whiteSpace=wrap;html=1;aspect=fixed;" parent="1" vertex="1">
          <mxGeometry x="473" y="885" width="70" height="70" as="geometry"/>
        </mxCell>
        <mxCell id="ij1Nast-WUGQV4Hvbau6-26" style="edgeStyle=orthogonalEdgeStyle;rounded=0;orthogonalLoop=1;jettySize=auto;html=1;" parent="1" source="ij1Nast-WUGQV4Hvbau6-27" edge="1">
          <mxGeometry relative="1" as="geometry">
            <mxPoint x="685" y="950" as="targetPoint"/>
          </mxGeometry>
        </mxCell>
        <mxCell id="ij1Nast-WUGQV4Hvbau6-27" value="ACCEPT" style="whiteSpace=wrap;html=1;aspect=fixed;" parent="1" vertex="1">
          <mxGeometry x="650" y="850" width="70" height="70" as="geometry"/>
        </mxCell>
        <mxCell id="ij1Nast-WUGQV4Hvbau6-28" value="CLOSE&lt;br&gt;(back to main page)" style="shape=hexagon;perimeter=hexagonPerimeter2;whiteSpace=wrap;html=1;" parent="1" vertex="1">
          <mxGeometry x="333" y="1020" width="105" height="70" as="geometry"/>
        </mxCell>
        <mxCell id="ij1Nast-WUGQV4Hvbau6-29" style="edgeStyle=orthogonalEdgeStyle;rounded=0;orthogonalLoop=1;jettySize=auto;html=1;" parent="1" source="ij1Nast-WUGQV4Hvbau6-30" edge="1">
          <mxGeometry relative="1" as="geometry">
            <mxPoint x="600" y="1060" as="targetPoint"/>
          </mxGeometry>
        </mxCell>
        <mxCell id="ij1Nast-WUGQV4Hvbau6-30" value="Back to assessment page with prefilled suggested version&amp;nbsp;" style="whiteSpace=wrap;html=1;aspect=fixed;" parent="1" vertex="1">
          <mxGeometry x="650" y="955" width="95" height="95" as="geometry"/>
        </mxCell>
        <mxCell id="ij1Nast-WUGQV4Hvbau6-48" style="edgeStyle=orthogonalEdgeStyle;rounded=0;orthogonalLoop=1;jettySize=auto;html=1;entryX=0;entryY=0.5;entryDx=0;entryDy=0;" parent="1" source="ij1Nast-WUGQV4Hvbau6-31" target="ij1Nast-WUGQV4Hvbau6-35" edge="1">
          <mxGeometry relative="1" as="geometry">
            <Array as="points">
              <mxPoint x="548" y="1110"/>
              <mxPoint x="548" y="1160"/>
              <mxPoint x="510" y="1160"/>
              <mxPoint x="510" y="1225"/>
            </Array>
          </mxGeometry>
        </mxCell>
        <mxCell id="ij1Nast-WUGQV4Hvbau6-31" value="Change version&amp;nbsp;" style="ellipse;whiteSpace=wrap;html=1;" parent="1" vertex="1">
          <mxGeometry x="438" y="1080" width="90" height="60" as="geometry"/>
        </mxCell>
        <mxCell id="ij1Nast-WUGQV4Hvbau6-32" style="edgeStyle=orthogonalEdgeStyle;rounded=0;orthogonalLoop=1;jettySize=auto;html=1;entryX=0.44;entryY=-0.033;entryDx=0;entryDy=0;entryPerimeter=0;" parent="1" source="ij1Nast-WUGQV4Hvbau6-33" target="ij1Nast-WUGQV4Hvbau6-35" edge="1">
          <mxGeometry relative="1" as="geometry"/>
        </mxCell>
        <mxCell id="ij1Nast-WUGQV4Hvbau6-47" style="edgeStyle=orthogonalEdgeStyle;rounded=0;orthogonalLoop=1;jettySize=auto;html=1;entryX=1;entryY=0.5;entryDx=0;entryDy=0;" parent="1" source="ij1Nast-WUGQV4Hvbau6-33" target="ij1Nast-WUGQV4Hvbau6-31" edge="1">
          <mxGeometry relative="1" as="geometry"/>
        </mxCell>
        <mxCell id="ij1Nast-WUGQV4Hvbau6-33" value="CONFIRM" style="ellipse;whiteSpace=wrap;html=1;" parent="1" vertex="1">
          <mxGeometry x="560" y="1070" width="120" height="80" as="geometry"/>
        </mxCell>
        <mxCell id="ij1Nast-WUGQV4Hvbau6-34" style="edgeStyle=orthogonalEdgeStyle;rounded=0;orthogonalLoop=1;jettySize=auto;html=1;entryX=0.375;entryY=0;entryDx=0;entryDy=0;" parent="1" source="ij1Nast-WUGQV4Hvbau6-45" target="ij1Nast-WUGQV4Hvbau6-13" edge="1">
          <mxGeometry relative="1" as="geometry"/>
        </mxCell>
        <mxCell id="ij1Nast-WUGQV4Hvbau6-35" value="Checking for approval:&lt;br&gt;&lt;ul&gt;&lt;li&gt;security check&lt;/li&gt;&lt;li&gt;lisence compliance&amp;nbsp;&lt;/li&gt;&lt;/ul&gt;" style="rounded=0;whiteSpace=wrap;html=1;align=left;" parent="1" vertex="1">
          <mxGeometry x="558" y="1180" width="140" height="90" as="geometry"/>
        </mxCell>
        <mxCell id="ij1Nast-WUGQV4Hvbau6-36" style="edgeStyle=orthogonalEdgeStyle;rounded=0;orthogonalLoop=1;jettySize=auto;html=1;" parent="1" source="ij1Nast-WUGQV4Hvbau6-37" edge="1">
          <mxGeometry relative="1" as="geometry">
            <mxPoint x="960" y="660" as="targetPoint"/>
          </mxGeometry>
        </mxCell>
        <mxCell id="ij1Nast-WUGQV4Hvbau6-37" value="APPROVED" style="rounded=0;whiteSpace=wrap;html=1;" parent="1" vertex="1">
          <mxGeometry x="750" y="560" width="160" height="80" as="geometry"/>
        </mxCell>
        <mxCell id="ij1Nast-WUGQV4Hvbau6-38" style="edgeStyle=orthogonalEdgeStyle;rounded=0;orthogonalLoop=1;jettySize=auto;html=1;" parent="1" source="ij1Nast-WUGQV4Hvbau6-39" edge="1">
          <mxGeometry relative="1" as="geometry">
            <mxPoint x="810" y="1480" as="targetPoint"/>
          </mxGeometry>
        </mxCell>
        <mxCell id="ij1Nast-WUGQV4Hvbau6-39" value="Add to DML" style="ellipse;whiteSpace=wrap;html=1;" parent="1" vertex="1">
          <mxGeometry x="896" y="980" width="120" height="80" as="geometry"/>
        </mxCell>
        <mxCell id="ij1Nast-WUGQV4Hvbau6-40" style="edgeStyle=orthogonalEdgeStyle;rounded=0;orthogonalLoop=1;jettySize=auto;html=1;entryX=0.414;entryY=-0.027;entryDx=0;entryDy=0;entryPerimeter=0;" parent="1" target="ij1Nast-WUGQV4Hvbau6-39" edge="1">
          <mxGeometry relative="1" as="geometry">
            <mxPoint x="930" y="730" as="sourcePoint"/>
          </mxGeometry>
        </mxCell>
        <mxCell id="ij1Nast-WUGQV4Hvbau6-42" value="Message &lt;br&gt;&lt;font style=&quot;font-size: 11px&quot;&gt;&lt;font style=&quot;font-size: 11px&quot;&gt;&quot;&lt;/font&gt;&lt;font style=&quot;font-size: 11px&quot;&gt;we regret to &lt;br&gt;inform you...&quot;&lt;/font&gt;&amp;nbsp;&lt;/font&gt;" style="ellipse;shape=cloud;whiteSpace=wrap;html=1;" parent="1" vertex="1">
          <mxGeometry x="180" y="730" width="170" height="130" as="geometry"/>
        </mxCell>
        <mxCell id="ij1Nast-WUGQV4Hvbau6-43" value="" style="edgeStyle=orthogonalEdgeStyle;rounded=0;orthogonalLoop=1;jettySize=auto;html=1;" parent="1" source="ij1Nast-WUGQV4Hvbau6-18" target="ij1Nast-WUGQV4Hvbau6-42" edge="1">
          <mxGeometry relative="1" as="geometry">
            <mxPoint x="310" y="690" as="sourcePoint"/>
            <mxPoint x="310" y="810" as="targetPoint"/>
          </mxGeometry>
        </mxCell>
        <mxCell id="ij1Nast-WUGQV4Hvbau6-44" value="Message" style="ellipse;shape=cloud;whiteSpace=wrap;html=1;" parent="1" vertex="1">
          <mxGeometry x="453" y="700" width="90" height="60" as="geometry"/>
        </mxCell>
        <mxCell id="ij1Nast-WUGQV4Hvbau6-45" value="Message &quot;Software approved&quot;" style="ellipse;shape=cloud;whiteSpace=wrap;html=1;" parent="1" vertex="1">
          <mxGeometry x="550" y="1310" width="140" height="120" as="geometry"/>
        </mxCell>
        <mxCell id="ij1Nast-WUGQV4Hvbau6-46" style="edgeStyle=orthogonalEdgeStyle;rounded=0;orthogonalLoop=1;jettySize=auto;html=1;entryX=0.375;entryY=0;entryDx=0;entryDy=0;" parent="1" source="ij1Nast-WUGQV4Hvbau6-35" target="ij1Nast-WUGQV4Hvbau6-45" edge="1">
          <mxGeometry relative="1" as="geometry">
            <mxPoint x="628" y="1270" as="sourcePoint"/>
            <mxPoint x="736.3333333333335" y="1380.3333333333335" as="targetPoint"/>
          </mxGeometry>
        </mxCell>
        <mxCell id="ij1Nast-WUGQV4Hvbau6-49" value="&lt;span style=&quot;white-space: normal&quot;&gt;Message&lt;br&gt;&quot;Software doesnt &lt;br&gt;exist in DML&quot;&lt;/span&gt;" style="ellipse;shape=cloud;whiteSpace=wrap;html=1;" parent="1" vertex="1">
          <mxGeometry x="860" y="640" width="160" height="110" as="geometry"/>
        </mxCell>
      </root>
    </mxGraphModel>
  </diagram>
</mxfile>
